<svg xmlns="http://www.w3.org/2000/svg" width="600" height="300" viewBox="0 0 600 300"><rect width="100%" height="100%" fill="#0056B9"/><path fill="#FFD800" d="M129.505 148.95h5.04q2.28 0 3.98-.57 1.7-.57 2.79-1.57 1.1-1.01 1.63-2.39.54-1.38.54-3.03 0-3.3-2.17-5.07-2.18-1.77-6.65-1.77h-5.16v14.4Zm14.94 6.72 10.86 16.02h-7.29q-2.07 0-3-1.62l-9.12-13.89q-.51-.78-1.12-1.11-.61-.33-1.82-.33h-3.45v16.95h-8.06v-43.38h13.22q4.41 0 7.58.92 3.17.91 5.19 2.56 2.02 1.65 2.98 3.95.96 2.29.96 5.05 0 2.19-.64 4.14-.65 1.95-1.86 3.54t-3 2.79q-1.79 1.2-4.07 1.89.78.45 1.44 1.07.67.61 1.2 1.45Zm33.03 9.51q2.34 0 4.19-.78 1.84-.78 3.1-2.19t1.94-3.42q.67-2.01.67-4.5v-25.98h8.07v25.98q0 3.87-1.24 7.16-1.25 3.28-3.57 5.66-2.33 2.39-5.66 3.73-3.33 1.33-7.5 1.33-4.2 0-7.53-1.33-3.33-1.34-5.65-3.73-2.33-2.38-3.57-5.66-1.25-3.29-1.25-7.16v-25.98h8.07v25.95q0 2.49.68 4.5.67 2.01 1.95 3.44 1.27 1.42 3.12 2.2 1.84.78 4.18.78Zm52.2-32.79-2.01 3.81q-.36.63-.76.92-.41.28-1.01.28-.63 0-1.36-.46-.74-.47-1.76-1.04-1.02-.57-2.38-1.03-1.37-.47-3.23-.47-1.68 0-2.94.41-1.26.4-2.11 1.12-.86.72-1.28 1.73-.42 1-.42 2.2 0 1.53.86 2.55.85 1.02 2.26 1.74 1.41.72 3.21 1.29 1.8.57 3.69 1.21 1.89.65 3.69 1.5 1.8.86 3.21 2.16 1.41 1.31 2.27 3.2.85 1.89.85 4.59 0 2.94-1 5.51-1.01 2.56-2.94 4.47-1.94 1.9-4.73 3-2.79 1.09-6.39 1.09-2.07 0-4.08-.41-2.01-.4-3.85-1.15-1.85-.75-3.47-1.8t-2.88-2.34l2.37-3.87q.3-.42.78-.7.48-.29 1.02-.29.75 0 1.62.62.87.61 2.07 1.36 1.2.75 2.81 1.37 1.6.61 3.85.61 3.45 0 5.34-1.63 1.89-1.64 1.89-4.7 0-1.71-.85-2.79-.86-1.08-2.27-1.81-1.41-.74-3.21-1.25t-3.66-1.11q-1.86-.6-3.66-1.44t-3.21-2.19q-1.41-1.35-2.26-3.37-.86-2.03-.86-5 0-2.37.95-4.62.94-2.25 2.74-3.99 1.8-1.74 4.44-2.79 2.64-1.05 6.06-1.05 3.84 0 7.08 1.2t5.52 3.36Zm38.1-4.08v6.63h-13.08v36.75h-8.07v-36.75h-13.08v-6.63h34.23Zm13.77 20.64h5.04q2.28 0 3.98-.57 1.69-.57 2.79-1.57 1.09-1.01 1.63-2.39.54-1.38.54-3.03 0-3.3-2.17-5.07-2.18-1.77-6.65-1.77h-5.16v14.4Zm14.94 6.72 10.86 16.02h-7.29q-2.07 0-3-1.62l-9.12-13.89q-.51-.78-1.12-1.11-.62-.33-1.82-.33h-3.45v16.95h-8.07v-43.38h13.23q4.41 0 7.58.92 3.16.91 5.19 2.56 2.02 1.65 2.98 3.95.96 2.29.96 5.05 0 2.19-.64 4.14-.65 1.95-1.86 3.54-1.22 1.59-3 2.79-1.79 1.2-4.07 1.89.78.45 1.44 1.07.66.61 1.2 1.45Zm23.67-27.36v43.38h-8.1v-43.38h8.1Zm39.48 33.15q.66 0 1.17.51l3.18 3.45q-2.64 3.27-6.49 5.01-3.86 1.74-9.26 1.74-4.83 0-8.68-1.65-3.86-1.65-6.59-4.59t-4.18-7.02q-1.46-4.08-1.46-8.91 0-4.89 1.56-8.95 1.56-4.07 4.4-7.01 2.83-2.94 6.76-4.58 3.93-1.63 8.7-1.63 4.74 0 8.42 1.56 3.67 1.56 6.25 4.08l-2.7 3.75q-.24.36-.61.63-.38.27-1.04.27-.45 0-.93-.25-.48-.26-1.05-.63-.57-.38-1.32-.83-.75-.45-1.74-.82-.99-.38-2.29-.63-1.31-.26-3.02-.26-2.91 0-5.32 1.04-2.42 1.03-4.16 3-1.74 1.96-2.7 4.8-.96 2.83-.96 6.46 0 3.66 1.04 6.51 1.03 2.85 2.8 4.8 1.77 1.95 4.17 2.99 2.4 1.03 5.16 1.03 1.65 0 2.99-.18 1.33-.18 2.46-.57 1.12-.39 2.13-1.01 1-.61 1.99-1.51.3-.27.63-.43.33-.17.69-.17Zm40.2-33.15v6.63h-13.08v36.75h-8.07v-36.75h-13.08v-6.63h34.23Zm33.06 6.42h-19.26v12.03h15.18v6.21h-15.18v12.27h19.26v6.45h-27.36v-43.38h27.36v6.42Zm45.66 15.27q0 4.77-1.59 8.76t-4.47 6.87q-2.88 2.88-6.93 4.47-4.05 1.59-9 1.59h-16.53v-43.38h16.53q4.95 0 9 1.61 4.05 1.6 6.93 4.47 2.88 2.86 4.47 6.85 1.59 3.99 1.59 8.76Zm-8.28 0q0-3.57-.94-6.4-.95-2.84-2.73-4.8-1.79-1.97-4.32-3.02-2.54-1.05-5.72-1.05h-8.43v30.54h8.43q3.18 0 5.72-1.05 2.53-1.05 4.32-3.01 1.78-1.97 2.73-4.81.94-2.83.94-6.4Z"/></svg>